name analog
datacolumns 19
datarows 37
range 0.3415 0.3595
endheader
time	ground_force_vx	ground_force_vy	ground_force_vz	ground_force_px	ground_force_py	ground_force_pz	l_ground_force_vx	l_ground_force_vy	l_ground_force_vz	l_ground_force_px	l_ground_force_py	l_ground_force_pz	ground_torque_x	ground_torque_y	ground_torque_z	l_ground_torque_x	l_ground_torque_y	l_ground_torque_z
0.3415	-0.0	-0.0	-0.0	-8.20105266571045	-6.175394058227539	-331.7366027832031	10.100505828857422	3.9620068073272714	-381.8476257324219	-0.0	-0.0	-0.0	-0.0	-0.0	-0.0	95352.90625	11159.697265625	-55.326168060302734
0.342	-0.0	-0.0	-0.0	-8.220308303833008	-6.366358757019043	-331.9379272460937	10.854398727416992	4.605346202850342	-381.5977783203125	-0.0	-0.0	-0.0	-0.0	-0.0	-0.0	94878.671875	10877.267578125	93.6434555053711
0.3425	-0.0	-0.0	-0.0	-7.862510681152344	-6.411401271820068	-332.5684814453125	11.196541786193848	4.800993919372559	-381.0738525390625	-0.0	-0.0	-0.0	-0.0	-0.0	-0.0	95174.0234375	10925.2626953125	316.44384765625
0.343	-0.0	-0.0	-0.0	-8.513004302978516	-6.455360889434815	-333.40185546875	11.652987480163574	5.17325496673584	-380.0260925292969	-0.0	-0.0	-0.0	-0.0	-0.0	-0.0	95228.3828125	10767.412109375	388.8989562988281
0.3435	-0.0	-0.0	-0.0	-8.977947235107422	-5.888217449188232	-334.2361755371094	12.381693840026855	5.248629093170166	-378.6062622070313	-0.0	-0.0	-0.0	-0.0	-0.0	-0.0	94557.8046875	10624.3271484375	510.0540466308594
0.34400000000000003	-0.0	-0.0	-0.0	-8.545278549194336	-5.933910846710205	-332.5456237792969	12.47047519683838	5.494734287261963	-377.8341064453125	-0.0	-0.0	-0.0	-0.0	-0.0	-0.0	94473.3515625	10604.265625	675.4952392578125
0.34450000000000003	-0.0	-0.0	-0.0	-8.339674949645996	-5.966446876525879	-333.1773681640625	12.432844161987305	5.722148418426514	-377.4853820800781	-0.0	-0.0	-0.0	-0.0	-0.0	-0.0	94200.609375	10439.955078125	563.1521606445312
0.34500000000000003	-0.0	-0.0	-0.0	-8.704903602600098	-5.591267108917236	-331.9346923828125	12.540512084960938	5.885403156280518	-376.66058349609375	-0.0	-0.0	-0.0	-0.0	-0.0	-0.0	94006.8515625	10341.6865234375	667.53173828125
0.34550000000000003	-0.0	-0.0	-0.0	-8.155807495117188	-5.315120220184326	-332.69549560546875	12.47068214416504	5.77828311920166	-375.8885803222656	-0.0	-0.0	-0.0	-0.0	-0.0	-0.0	94140.328125	10499.814453125	633.2816772460938
0.34600000000000003	-0.0	-0.0	-0.0	-8.099357604980469	-5.277475833892822	-332.4167785644531	12.5781888961792	6.340500831604004	-375.7412414550781	-0.0	-0.0	-0.0	-0.0	-0.0	-0.0	94032.9140625	10264.021484375	647.7083129882812
0.34650000000000003	-0.0	-0.0	-0.0	-8.348265647888184	-5.704345703125	-333.2532958984375	12.625266075134276	6.252216815948486	-375.668212890625	-0.0	-0.0	-0.0	-0.0	-0.0	-0.0	93829.265625	10266.5078125	792.7318115234375
0.34700000000000003	-0.0	-0.0	-0.0	-8.66773509979248	-5.770365238189697	-332.1766052246094	13.021818161010742	6.126760959625244	-376.6793212890625	-0.0	-0.0	-0.0	-0.0	-0.0	-0.0	94305.8515625	10227.3876953125	800.8091430664062
0.34750000000000003	-0.0	-0.0	-0.0	-8.921051025390625	-5.793476104736328	-331.47100830078125	12.989056587219238	5.72682523727417	-376.8079833984375	-0.0	-0.0	-0.0	-0.0	-0.0	-0.0	94275.953125	10145.9541015625	811.6214599609375
0.34800000000000003	-0.0	-0.0	-0.0	-8.921051025390625	-5.971736907958984	-330.35479736328125	12.848767280578612	5.527222156524658	-376.0363159179688	-0.0	-0.0	-0.0	-0.0	-0.0	-0.0	94341.8515625	10150.150390625	770.8056030273438
0.34850000000000003	-0.0	-0.0	-0.0	-9.259271621704102	-6.625070571899414	-329.0317077636719	12.512340545654297	5.987390041351318	-377.708984375	-0.0	-0.0	-0.0	-0.0	-0.0	-0.0	94421.9140625	10049.376953125	698.90087890625
0.34900000000000003	-0.0	-0.0	-0.0	-8.869037628173828	-6.900205135345459	-327.1332702636719	13.14773941040039	5.987412452697754	-378.3343811035156	-0.0	-0.0	-0.0	-0.0	-0.0	-0.0	94661.78125	10244.3857421875	782.136474609375
0.34950000000000003	-0.0	-0.0	-0.0	-8.746224403381348	-7.572492599487305	-329.59039306640625	12.918581008911133	6.131045818328857	-379.43994140625	-0.0	-0.0	-0.0	-0.0	-0.0	-0.0	94706.765625	10001.9326171875	806.7626953125
0.35000000000000003	-0.0	-0.0	-0.0	-8.634896278381348	-7.241472244262695	-330.1229553222656	13.606056213378906	6.142127990722656	-378.625732421875	-0.0	-0.0	-0.0	-0.0	-0.0	-0.0	95008.0859375	10233.716796875	883.8451538085938
0.35050000000000003	-0.0	-0.0	-0.0	-8.757853507995605	-7.698904514312744	-327.3375244140625	13.857324600219728	5.704187393188477	-380.5615234375	-0.0	-0.0	-0.0	-0.0	-0.0	-0.0	95217.9921875	9937.7822265625	965.55029296875
0.35100000000000003	-0.0	-0.0	-0.0	-8.478082656860352	-7.825032711029053	-329.1759338378906	13.38023567199707	5.575996398925781	-380.57525634765625	-0.0	-0.0	-0.0	-0.0	-0.0	-0.0	95423.1328125	10049.7138671875	882.3907470703125
0.35150000000000003	-0.0	-0.0	-0.0	-9.133419036865234	-7.557679176330566	-329.88153076171875	13.107705116271973	5.156120300292969	-381.8272705078125	-0.0	-0.0	-0.0	-0.0	-0.0	-0.0	95476.9140625	9850.5244140625	858.6055908203125
0.352	-0.0	-0.0	-0.0	-9.083805084228516	-7.489670276641846	-329.8700561523437	13.006770133972168	4.8606276512146	-381.8392028808594	-0.0	-0.0	-0.0	-0.0	-0.0	-0.0	95780.0390625	9905.0283203125	763.3601684570312
0.3525	-0.0	-0.0	-0.0	-9.367103576660156	-7.864388465881348	-330.66949462890625	13.184104919433594	4.927791595458984	-381.2125854492188	-0.0	-0.0	-0.0	-0.0	-0.0	-0.0	95605.0859375	9993.0615234375	699.021484375
0.353	-0.0	-0.0	-0.0	-8.81590747833252	-8.001049041748047	-332.5599060058594	13.413594245910645	4.577147960662842	-382.7317810058594	-0.0	-0.0	-0.0	-0.0	-0.0	-0.0	95928.4375	9889.8408203125	894.5156860351562
0.3535	-0.0	-0.0	-0.0	-8.742630004882812	-7.758736610412598	-332.1338806152344	13.554521560668944	4.681049346923828	-382.1153564453125	-0.0	-0.0	-0.0	-0.0	-0.0	-0.0	95737.7890625	9793.1357421875	982.8345947265624
0.354	-0.0	-0.0	-0.0	-8.955495834350586	-8.218235969543457	-333.32958984375	13.841179847717283	4.644805908203125	-382.3029479980469	-0.0	-0.0	-0.0	-0.0	-0.0	-0.0	95609.6015625	9473.4599609375	1150.429931640625
0.3545	-0.0	-0.0	-0.0	-8.850057601928711	-8.323655128479004	-332.2776184082031	14.177671432495115	4.524590969085693	-381.1305847167969	-0.0	-0.0	-0.0	-0.0	-0.0	-0.0	95324.171875	9676.6904296875	1292.154541015625
0.355	-0.0	-0.0	-0.0	-9.225042343139648	-8.129030227661133	-331.5706787109375	14.405478477478027	4.823512554168701	-380.2898864746094	-0.0	-0.0	-0.0	-0.0	-0.0	-0.0	95398.5390625	9816.01953125	1358.474853515625
0.3555	-0.0	-0.0	-0.0	-9.690749168395996	-8.75291633605957	-333.1143798828125	14.334946632385254	4.964035034179688	-379.876953125	-0.0	-0.0	-0.0	-0.0	-0.0	-0.0	95232.8203125	9685.0263671875	1512.216796875
0.356	-0.0	-0.0	-0.0	-9.761542320251465	-8.805810928344727	-333.0487060546875	14.548568725585938	5.405606269836426	-379.7410888671875	-0.0	-0.0	-0.0	-0.0	-0.0	-0.0	95194.78125	9765.74609375	1441.6337890625
0.3565	-0.0	-0.0	-0.0	-9.778178215026855	-8.5565185546875	-332.6286315917969	14.886801719665527	5.1764960289001465	-377.2965698242188	-0.0	-0.0	-0.0	-0.0	-0.0	-0.0	95178.8359375	9493.96875	1649.4520263671875
0.357	-0.0	-0.0	-0.0	-9.83121109008789	-8.55545711517334	-333.89801025390625	15.400972366333008	5.317224502563477	-378.55120849609375	-0.0	-0.0	-0.0	-0.0	-0.0	-0.0	95355.625	9742.71875	1803.750732421875
0.3575	-0.0	-0.0	-0.0	-9.884349822998049	-7.737217903137207	-333.6158447265625	15.399746894836426	5.881780624389648	-378.6881103515625	-0.0	-0.0	-0.0	-0.0	-0.0	-0.0	94850.0078125	9580.779296875	1733.3328857421875
0.358	-0.0	-0.0	-0.0	-9.866408348083496	-7.895308971405029	-334.45867919921875	15.239401817321776	5.441168785095215	-379.1044616699219	-0.0	-0.0	-0.0	-0.0	-0.0	-0.0	94742.6875	9479.1357421875	1726.7398681640625
0.3585	-0.0	-0.0	-0.0	-9.705992698669434	-7.291308879852295	-334.8168029785156	14.441957473754885	5.8648762702941895	-380.0852355957031	-0.0	-0.0	-0.0	-0.0	-0.0	-0.0	94984.0625	9469.39453125	1512.655029296875
0.359	-0.0	-0.0	-0.0	-9.956111907958984	-6.862676620483398	-336.93511962890625	13.927593231201172	5.970304489135742	-380.2261352539063	-0.0	-0.0	-0.0	-0.0	-0.0	-0.0	95453.8125	9406.7158203125	1411.402099609375
0.3595	-0.0	-0.0	-0.0	-10.669507026672363	-7.058811664581299	-338.2770080566406	13.750171661376951	6.236178398132324	-380.50677490234375	-0.0	-0.0	-0.0	-0.0	-0.0	-0.0	95808.9140625	9524.6376953125	1387.6904296875
